<?xml version="1.0" encoding="UTF-8" standalone="no"?>
<!-- Created with Inkscape (http://www.inkscape.org/) -->

<svg
   xmlns:dc="http://purl.org/dc/elements/1.1/"
   xmlns:cc="http://creativecommons.org/ns#"
   xmlns:rdf="http://www.w3.org/1999/02/22-rdf-syntax-ns#"
   xmlns:svg="http://www.w3.org/2000/svg"
   xmlns="http://www.w3.org/2000/svg"
   xmlns:sodipodi="http://sodipodi.sourceforge.net/DTD/sodipodi-0.dtd"
   xmlns:inkscape="http://www.inkscape.org/namespaces/inkscape"
   width="150mm"
   height="150mm"
   viewBox="0 0 150 150"
   version="1.1"
   id="svg8"
   inkscape:version="0.92.4 5da689c313, 2019-01-14"
   sodipodi:docname="brig-enemy.svg">
  <defs
     id="defs2" />
  <sodipodi:namedview
     id="base"
     pagecolor="#ffffff"
     bordercolor="#666666"
     borderopacity="1.0"
     inkscape:pageopacity="0.0"
     inkscape:pageshadow="2"
     inkscape:zoom="1.4"
     inkscape:cx="574.14344"
     inkscape:cy="375.75442"
     inkscape:document-units="mm"
     inkscape:current-layer="layer1"
     showgrid="false"
     showguides="false"
     inkscape:window-width="1916"
     inkscape:window-height="1040"
     inkscape:window-x="0"
     inkscape:window-y="18"
     inkscape:window-maximized="0">
    <inkscape:grid
       type="xygrid"
       id="grid857" />
  </sodipodi:namedview>
  <metadata
     id="metadata5">
    <rdf:RDF>
      <cc:Work
         rdf:about="">
        <dc:format>image/svg+xml</dc:format>
        <dc:type
           rdf:resource="http://purl.org/dc/dcmitype/StillImage" />
        <dc:title></dc:title>
      </cc:Work>
    </rdf:RDF>
  </metadata>
  <g
     inkscape:label="Layer 1"
     inkscape:groupmode="layer"
     id="layer1"
     transform="translate(0,-147)">
    <path
       style="opacity:1;vector-effect:none;fill:#806a0f;fill-opacity:1;fill-rule:evenodd;stroke:#1e1e1e;stroke-width:1.4455272;stroke-linecap:butt;stroke-linejoin:miter;stroke-miterlimit:4;stroke-dasharray:none;stroke-dashoffset:0;stroke-opacity:1"
       d="m 81.966316,237.1618 a 49.720108,15.161901 0 0 0 35.787464,-4.66125 v -21.022 a 49.720108,15.161901 0 0 0 -35.787464,-4.64034 49.720108,15.161901 0 0 0 -49.720102,15.1618 49.720108,15.161901 0 0 0 49.720102,15.16179 z"
       id="path815"
       inkscape:connector-curvature="0" />
    <path
       style="opacity:1;vector-effect:none;fill:#6a5500;fill-opacity:1;fill-rule:evenodd;stroke:#1e1e1e;stroke-width:0.95882463;stroke-linecap:butt;stroke-linejoin:miter;stroke-miterlimit:4;stroke-dasharray:none;stroke-dashoffset:0;stroke-opacity:1"
       d="m 74.329116,232.05689 a 32.97957,10.056957 0 0 0 23.737956,-3.09183 v -13.94398 a 32.97957,10.056957 0 0 0 -23.737956,-3.07796 32.97957,10.056957 0 0 0 -32.979565,10.05689 32.97957,10.056957 0 0 0 32.979565,10.05688 z"
       id="path815-5"
       inkscape:connector-curvature="0" />
    <path
       style="opacity:1;fill:#e5ff80;fill-opacity:1;fill-rule:evenodd;stroke:#1e1e1e;stroke-width:1.5;stroke-miterlimit:4;stroke-dasharray:none;stroke-opacity:1"
       d="m 85.299232,256.15321 c 0,0 -1.889881,-22.75139 -1.889881,-34.15321 0,-11.40182 1.889881,-34.15321 1.889881,-34.15321 v 0 c -4.976447,0.67544 -8.917246,15.76746 -8.92038,34.16225 0.0058,18.38778 3.945826,33.46899 8.92038,34.14417 z"
       id="path822"
       inkscape:connector-curvature="0"
       sodipodi:nodetypes="cacccc" />
  </g>
</svg>
