<?xml version="1.0" encoding="UTF-8" standalone="no"?>
<!-- Created with Inkscape (http://www.inkscape.org/) -->

<svg
   xmlns:dc="http://purl.org/dc/elements/1.1/"
   xmlns:cc="http://creativecommons.org/ns#"
   xmlns:rdf="http://www.w3.org/1999/02/22-rdf-syntax-ns#"
   xmlns:svg="http://www.w3.org/2000/svg"
   xmlns="http://www.w3.org/2000/svg"
   xmlns:sodipodi="http://sodipodi.sourceforge.net/DTD/sodipodi-0.dtd"
   xmlns:inkscape="http://www.inkscape.org/namespaces/inkscape"
   width="210mm"
   height="297mm"
   viewBox="0 0 210 297"
   version="1.1"
   id="svg8"
   inkscape:version="0.92.4 5da689c313, 2019-01-14"
   sodipodi:docname="man-at-war.svg">
  <defs
     id="defs2" />
  <sodipodi:namedview
     id="base"
     pagecolor="#ffffff"
     bordercolor="#666666"
     borderopacity="1.0"
     inkscape:pageopacity="0.0"
     inkscape:pageshadow="2"
     inkscape:zoom="0.35"
     inkscape:cx="1091.2863"
     inkscape:cy="775.75442"
     inkscape:document-units="mm"
     inkscape:current-layer="layer1"
     showgrid="false"
     showguides="false"
     inkscape:window-width="1916"
     inkscape:window-height="1040"
     inkscape:window-x="0"
     inkscape:window-y="18"
     inkscape:window-maximized="0">
    <inkscape:grid
       type="xygrid"
       id="grid857" />
  </sodipodi:namedview>
  <metadata
     id="metadata5">
    <rdf:RDF>
      <cc:Work
         rdf:about="">
        <dc:format>image/svg+xml</dc:format>
        <dc:type
           rdf:resource="http://purl.org/dc/dcmitype/StillImage" />
        <dc:title />
      </cc:Work>
    </rdf:RDF>
  </metadata>
  <g
     inkscape:label="Layer 1"
     inkscape:groupmode="layer"
     id="layer1">
    <path
       style="opacity:1;fill:#806a0f;fill-opacity:1;fill-rule:evenodd;stroke:#1e1e1e;stroke-width:2;stroke-miterlimit:4;stroke-dasharray:none;stroke-opacity:1"
       d="m 120.19628,188.70968 a 68.791663,20.977678 0 0 0 49.5148,-6.44921 V 153.1749 a 68.791663,20.977678 0 0 0 -49.5148,-6.42028 68.791663,20.977678 0 0 0 -68.791661,20.97754 68.791663,20.977678 0 0 0 68.791661,20.97752 z"
       id="path815"
       inkscape:connector-curvature="0" />
    <path
       style="opacity:1;fill:#ffffff;fill-opacity:1;fill-rule:evenodd;stroke:#1e1e1e;stroke-width:1.5;stroke-miterlimit:4;stroke-dasharray:none;stroke-opacity:1"
       d="m 146.65468,201.88536 v -68.30641 a 9.2604168,34.206849 0 0 0 -8.92038,34.16224 9.2604168,34.206849 0 0 0 8.92038,34.14417 z"
       id="path822"
       inkscape:connector-curvature="0" />
    <path
       style="opacity:1;fill:#ffffff;fill-opacity:1;fill-rule:evenodd;stroke:#1e1e1e;stroke-width:1.75747442;stroke-miterlimit:4;stroke-dasharray:none;stroke-opacity:1"
       d="m 112.1834,214.6164 v -93.7685 a 9.2604169,46.957892 0 0 0 -8.92038,46.89667 9.2604169,46.957892 0 0 0 8.92038,46.87183 z"
       id="path822-2"
       inkscape:connector-curvature="0" />
    <path
       style="opacity:1;fill:#ffffff;fill-opacity:1;fill-rule:evenodd;stroke:#1e1e1e;stroke-width:1.5;stroke-miterlimit:4;stroke-dasharray:none;stroke-opacity:1"
       d="m 89.504833,201.88536 v -68.30642 a 9.2604169,34.206849 0 0 0 -8.92038,34.16224 9.2604169,34.206849 0 0 0 8.92038,34.14418 z"
       id="path822-9"
       inkscape:connector-curvature="0" />
  </g>
</svg>
