<?xml version="1.0" encoding="UTF-8" standalone="no"?>
<!-- Created with Inkscape (http://www.inkscape.org/) -->

<svg
   xmlns:dc="http://purl.org/dc/elements/1.1/"
   xmlns:cc="http://creativecommons.org/ns#"
   xmlns:rdf="http://www.w3.org/1999/02/22-rdf-syntax-ns#"
   xmlns:svg="http://www.w3.org/2000/svg"
   xmlns="http://www.w3.org/2000/svg"
   xmlns:sodipodi="http://sodipodi.sourceforge.net/DTD/sodipodi-0.dtd"
   xmlns:inkscape="http://www.inkscape.org/namespaces/inkscape"
   width="150mm"
   height="150mm"
   viewBox="0 0 150 150"
   version="1.1"
   id="svg8"
   inkscape:version="0.92.4 5da689c313, 2019-01-14"
   sodipodi:docname="man-at-war-player.svg">
  <defs
     id="defs2" />
  <sodipodi:namedview
     id="base"
     pagecolor="#ffffff"
     bordercolor="#666666"
     borderopacity="1.0"
     inkscape:pageopacity="0.0"
     inkscape:pageshadow="2"
     inkscape:zoom="0.98994949"
     inkscape:cx="188.36858"
     inkscape:cy="396.08432"
     inkscape:document-units="mm"
     inkscape:current-layer="layer1"
     showgrid="false"
     showguides="false"
     inkscape:window-width="1916"
     inkscape:window-height="1040"
     inkscape:window-x="0"
     inkscape:window-y="18"
     inkscape:window-maximized="0">
    <inkscape:grid
       type="xygrid"
       id="grid857" />
  </sodipodi:namedview>
  <metadata
     id="metadata5">
    <rdf:RDF>
      <cc:Work
         rdf:about="">
        <dc:format>image/svg+xml</dc:format>
        <dc:type
           rdf:resource="http://purl.org/dc/dcmitype/StillImage" />
        <dc:title></dc:title>
      </cc:Work>
    </rdf:RDF>
  </metadata>
  <g
     inkscape:label="Layer 1"
     inkscape:groupmode="layer"
     id="layer1"
     transform="translate(0,-147)">
    <path
       style="opacity:1;fill:#806a0f;fill-opacity:1;fill-rule:evenodd;stroke:#1e1e1e;stroke-width:2;stroke-miterlimit:4;stroke-dasharray:none;stroke-opacity:1"
       d="m 84.638441,242.97753 a 68.791663,20.977678 0 0 0 49.514779,-6.44921 v -29.08557 a 68.791663,20.977678 0 0 0 -49.514779,-6.42028 68.791663,20.977678 0 0 0 -68.791661,20.97754 68.791663,20.977678 0 0 0 68.791661,20.97752 z"
       id="path815"
       inkscape:connector-curvature="0" />
    <path
       style="opacity:1;fill:#6a5500;fill-opacity:1;fill-rule:evenodd;stroke:#1e1e1e;stroke-width:1.30904388;stroke-miterlimit:4;stroke-dasharray:none;stroke-opacity:1"
       d="m 74.048709,209.60158 a 49.862067,12.398564 0 0 0 -44.566789,6.84655 v 11.07972 a 49.862067,12.398564 0 0 0 44.566789,6.87057 49.862067,12.398564 0 0 0 35.889801,-3.81137 v -17.19096 a 49.862067,12.398564 0 0 0 -35.889801,-3.79451 z"
       id="path815-2"
       inkscape:connector-curvature="0" />
    <path
       style="opacity:1;fill:#333333;fill-opacity:1;fill-rule:evenodd;stroke:#1e1e1e;stroke-width:1.5;stroke-miterlimit:4;stroke-dasharray:none;stroke-opacity:1"
       d="M 103.5373,256.15321 V 187.8468 a 9.2604168,34.206849 0 0 0 -8.920384,34.16224 9.2604168,34.206849 0 0 0 8.920384,34.14417 z"
       id="path822"
       inkscape:connector-curvature="0" />
    <path
       style="opacity:1;fill:#333333;fill-opacity:1;fill-rule:evenodd;stroke:#1e1e1e;stroke-width:2.09037423;stroke-miterlimit:4;stroke-dasharray:none;stroke-opacity:1"
       d="m 80.325008,268.88425 c -3.430893,-26.96755 -4.596532,-56.76667 0,-93.7685 -7.040273,0.92722 -12.615393,21.64498 -12.619827,46.89667 0.0082,25.24206 5.582236,45.94497 12.619827,46.87183 z"
       id="path822-2"
       inkscape:connector-curvature="0"
       sodipodi:nodetypes="cccc" />
    <path
       style="opacity:1;fill:#333333;fill-opacity:1;fill-rule:evenodd;stroke:#1e1e1e;stroke-width:1.5;stroke-miterlimit:4;stroke-dasharray:none;stroke-opacity:1"
       d="m 53.946994,256.15321 v -68.30642 a 9.2604169,34.206849 0 0 0 -8.92038,34.16224 9.2604169,34.206849 0 0 0 8.92038,34.14418 z"
       id="path822-9"
       inkscape:connector-curvature="0" />
    <rect
       style="opacity:1;fill:#6a5500;fill-opacity:1;fill-rule:evenodd;stroke:#080808;stroke-width:1.42673361;stroke-miterlimit:4;stroke-dasharray:none;stroke-opacity:1"
       id="rect5266"
       width="28.545179"
       height="43.307281"
       x="107.73313"
       y="200.34636" />
  </g>
</svg>
