<?xml version="1.0" encoding="UTF-8" standalone="no"?>
<!-- Created with Inkscape (http://www.inkscape.org/) -->

<svg
   xmlns:dc="http://purl.org/dc/elements/1.1/"
   xmlns:cc="http://creativecommons.org/ns#"
   xmlns:rdf="http://www.w3.org/1999/02/22-rdf-syntax-ns#"
   xmlns:svg="http://www.w3.org/2000/svg"
   xmlns="http://www.w3.org/2000/svg"
   xmlns:sodipodi="http://sodipodi.sourceforge.net/DTD/sodipodi-0.dtd"
   xmlns:inkscape="http://www.inkscape.org/namespaces/inkscape"
   width="150mm"
   height="150mm"
   viewBox="0 0 150 150"
   version="1.1"
   id="svg8"
   inkscape:version="0.92.4 5da689c313, 2019-01-14"
   sodipodi:docname="ship-of-the-line-player.svg">
  <defs
     id="defs2" />
  <sodipodi:namedview
     id="base"
     pagecolor="#ffffff"
     bordercolor="#666666"
     borderopacity="1.0"
     inkscape:pageopacity="0.0"
     inkscape:pageshadow="2"
     inkscape:zoom="1.4"
     inkscape:cx="302.38035"
     inkscape:cy="322.30876"
     inkscape:document-units="mm"
     inkscape:current-layer="layer1"
     showgrid="false"
     showguides="true"
     inkscape:window-width="1916"
     inkscape:window-height="1040"
     inkscape:window-x="0"
     inkscape:window-y="18"
     inkscape:window-maximized="0">
    <inkscape:grid
       type="xygrid"
       id="grid857" />
  </sodipodi:namedview>
  <metadata
     id="metadata5">
    <rdf:RDF>
      <cc:Work
         rdf:about="">
        <dc:format>image/svg+xml</dc:format>
        <dc:type
           rdf:resource="http://purl.org/dc/dcmitype/StillImage" />
        <dc:title></dc:title>
      </cc:Work>
    </rdf:RDF>
  </metadata>
  <g
     inkscape:label="Layer 1"
     inkscape:groupmode="layer"
     id="layer1"
     transform="translate(0,-147)">
    <path
       style="opacity:1;fill:#806a0f;fill-opacity:1;fill-rule:evenodd;stroke:#1e1e1e;stroke-width:1.86241364;stroke-miterlimit:4;stroke-dasharray:none;stroke-opacity:1"
       d="m 83.975366,241.53442 a 64.059264,19.534556 0 0 0 46.108534,-6.00554 v -27.08469 a 64.059264,19.534556 0 0 0 -46.108534,-5.9786 64.059264,19.534556 0 0 0 -64.059271,19.53442 64.059264,19.534556 0 0 0 64.059271,19.53441 z"
       id="path815"
       inkscape:connector-curvature="0" />
    <path
       style="opacity:1;fill:#6a5500;fill-opacity:1;fill-rule:evenodd;stroke:#1e1e1e;stroke-width:1.25622869;stroke-miterlimit:4;stroke-dasharray:none;stroke-opacity:1"
       d="m 77.25556,234.29325 a 46.312766,12.29334 0 0 0 33.33495,-3.77936 v -17.04473 a 46.312766,12.29334 0 0 0 -33.33495,-3.7624 46.312766,12.29334 0 0 0 -46.312768,12.29325 46.312766,12.29334 0 0 0 46.312768,12.29324 z"
       id="path815-2"
       inkscape:connector-curvature="0" />
    <path
       style="opacity:1;fill:#333333;fill-opacity:1;fill-rule:evenodd;stroke:#1e1e1e;stroke-width:1.5;stroke-miterlimit:4;stroke-dasharray:none;stroke-opacity:1"
       d="M 100.87185,256.15321 V 187.8468 a 9.2604168,34.206849 0 0 0 -8.920384,34.16224 9.2604168,34.206849 0 0 0 8.920384,34.14417 z"
       id="path822"
       inkscape:connector-curvature="0" />
    <path
       style="opacity:1;fill:#333333;fill-opacity:1;fill-rule:evenodd;stroke:#1e1e1e;stroke-width:1.86345017;stroke-miterlimit:4;stroke-dasharray:none;stroke-opacity:1"
       d="m 68.259483,262.76072 c 0,0 -3.776279,-27.21569 -3.779762,-40.76071 -0.0035,-13.67082 3.779762,-40.76072 3.779762,-40.76072 -6.435208,0.8061 -11.531187,18.81792 -11.53524,40.77151 0.0075,21.94522 5.102482,39.94414 11.53524,40.74992 z"
       id="path822-2"
       inkscape:connector-curvature="0"
       sodipodi:nodetypes="csccc" />
  </g>
</svg>
